<?xml version="1.0" standalone="no"?>
<!DOCTYPE svg PUBLIC "-//W3C//DTD SVG 20010904//EN"
 "http://www.w3.org/TR/2001/REC-SVG-20010904/DTD/svg10.dtd">
<svg version="1.0" xmlns="http://www.w3.org/2000/svg"
 width="300.000000pt" height="522.000000pt" viewBox="0 0 300.000000 522.000000"
 preserveAspectRatio="xMidYMid meet">
<metadata>
Created by potrace 1.10, written by Peter Selinger 2001-2011
</metadata>
<g transform="translate(0.000000,522.000000) scale(0.100000,-0.100000)"
fill="#000000" stroke="none">
<path d="M1589 3485 c-145 -47 -215 -109 -290 -256 -13 -24 -35 -63 -51 -86
-16 -23 -51 -95 -79 -160 -28 -65 -70 -155 -95 -200 -41 -76 -94 -209 -131
-328 -8 -27 -28 -75 -44 -107 -26 -51 -27 -57 -11 -64 9 -4 94 -9 188 -12
l171 -4 -8 -42 c-5 -22 -8 -59 -9 -82 0 -37 -3 -41 -39 -57 -62 -28 -90 -88
-69 -148 13 -37 46 -65 98 -82 l44 -15 -2 -83 c-1 -46 2 -130 6 -186 10 -120
23 -143 82 -143 71 0 260 77 260 105 0 12 -14 8 -62 -16 -76 -38 -163 -69
-195 -69 -42 0 -53 48 -53 228 l0 159 78 5 c55 3 94 12 135 31 62 28 77 51 77
117 0 42 -14 55 -105 98 -39 18 -69 24 -139 25 l-88 2 7 55 c5 30 8 69 9 85
l1 30 -172 5 c-94 3 -174 8 -178 12 -3 3 3 24 13 45 11 21 28 65 37 98 10 33
21 65 26 70 4 6 19 46 33 89 13 43 31 83 39 89 8 7 29 46 47 87 17 41 41 95
52 120 11 25 40 92 65 150 24 57 50 108 58 113 8 4 15 16 15 26 0 10 15 38 33
62 18 24 43 60 54 79 44 72 235 160 348 160 45 0 60 -5 95 -32 23 -18 58 -59
78 -91 35 -57 35 -58 45 -220 9 -155 3 -970 -9 -1317 -4 -123 -3 -161 6 -150
8 12 10 7 6 -20 -3 -19 -8 -140 -12 -267 -5 -204 -4 -233 9 -233 12 0 17 17
22 72 9 105 22 612 15 618 -3 3 -5 327 -5 720 l0 715 -33 61 c-85 157 -193
197 -373 139z m-164 -1416 c4 -5 12 -8 18 -6 15 5 99 -36 116 -56 10 -13 -13
-15 -194 -10 -196 4 -207 3 -203 -14 4 -21 -1 -21 231 -22 137 -1 177 -4 177
-14 0 -16 -41 -40 -109 -62 -43 -14 -72 -16 -138 -11 -121 9 -182 46 -183 112
0 33 15 51 65 77 35 19 210 24 220 6z"/>
<path d="M1395 2821 c-80 -5 -100 -9 -100 -21 0 -13 17 -15 105 -12 124 3 150
7 150 27 0 10 -9 14 -27 13 -16 -1 -73 -4 -128 -7z"/>
<path d="M1617 1517 c-4 -12 -20 -111 -47 -307 -9 -62 -7 -69 17 -73 5 -1 20
80 34 178 15 99 30 188 34 198 5 13 2 17 -13 17 -11 0 -22 -6 -25 -13z"/>
</g>
</svg>
