<svg xmlns="http://www.w3.org/2000/svg" width="512" height="421" viewBox="0 0 512 421" fill="#1DA1F2">
  <path d="M512 97.2c-18.8 8.3-39 13.9-60.2 16.5 21.7-13 38.3-33.6 46.2-58.1-20.3 12-42.8 20.7-66.7 25.4C400.3 64.5 372.7 50 342.7 50c-58 0-105 47-105 105 0 8.2 1 16.2 2.7 23.9-87.3-4.4-164.7-46.2-216.5-109.5-9 15.5-14.2 33.6-14.2 52.9 0 36.4 18.5 68.6 46.7 87.4-17.2-.5-33.4-5.3-47.5-13.1v1.3c0 50.9 36.2 93.3 84.2 103-8.8 2.4-18.1 3.7-27.7 3.7-6.8 0-13.4-.7-19.9-1.9 13.4 41.7 52.1 72.1 98 72.9-35.9 28.2-81.2 45-130.4 45-8.5 0-16.8-.5-25-1.5C46.7 398.5 101.4 418 160 418c180 0 278.5-149 278.5-278.5 0-4.2-.1-8.4-.3-12.5 19.1-13.8 35.7-31 48.8-50.7z"/>
</svg>